<svg width="48" height="48" viewBox="0 0 48 48" fill="none" xmlns="http://www.w3.org/2000/svg">
<g clip-path="url(#clip0_2855_70)">
<rect width="48" height="48" rx="8" fill="#FAFAFA"/>
<path d="M10.584 23.1013C10.584 22.2929 10.3744 22.0534 9.20666 21.4845L8.12877 20.9755L13.3386 19.6281V21.8438C13.1889 22.1133 12.7098 23.0714 12.59 23.3708V24.6283C13.6679 21.6342 15.7039 19.5383 17.71 19.5383C19.237 19.5383 20.0454 20.5563 20.1053 21.5743C20.1652 22.772 19.3568 23.4606 18.4885 23.5205C17.6501 23.5505 16.7818 22.8917 16.7818 21.9037C16.7818 21.6641 16.9315 21.3348 17.0513 21.2749H17.4705V20.7659C15.6141 20.6761 13.9075 22.8019 13.3386 24.5685V31.1556C13.3386 32.3532 13.8775 33.0718 14.9853 33.1616L15.7039 33.2215V34H8.21859V33.2215L8.84736 33.1616C10.045 33.0419 10.584 32.3532 10.584 31.1556V23.1013ZM20.9622 34V33.1317L21.6508 33.0718C23.0581 32.9521 23.7767 32.2335 23.7767 30.8562V16.1849C23.7767 14.8076 23.0581 14.089 21.6508 13.9692L20.9622 13.9093V13.041H29.7649V13.9093L29.0763 13.9692C27.669 14.089 26.9504 14.8076 26.9504 16.1849V23.8798L26.1121 24.778V25.5266L34.9149 16.3945C36.1125 15.1369 35.9029 14.059 34.7053 13.9692L34.0466 13.9093V13.041H41.0828V13.8494C39.466 14.2387 37.6096 15.2866 36.4718 16.4244L31.9207 21.0953L38.9869 30.916C39.9151 32.2035 40.8133 32.8622 41.981 33.1916V34H37.1006L29.7649 23.3409L26.9504 26.2452V30.8562C26.9504 32.2335 27.669 32.9521 29.0763 33.0718L29.7649 33.1317V34H20.9622Z" fill="black"/>
</g>
<defs>
<clipPath id="clip0_2855_70">
<rect width="48" height="48" rx="8" fill="white"/>
</clipPath>
</defs>
</svg>
